<svg width="100" height="100" viewBox="0 0 100 100" fill="none" xmlns="http://www.w3.org/2000/svg">
<path fill-rule="evenodd" clip-rule="evenodd" d="M92.9432 33.9355C95.1708 36.1592 96.9335 38.7302 98.134 41.535C99.3276 44.3398 99.9453 47.3152 99.9522 50.3284C99.9591 53.3354 99.3554 56.3171 98.1687 59.1219C96.982 61.9267 95.2332 64.5104 93.0126 66.7403C89.0431 70.7264 84.7544 74.4409 80.1812 77.8521C75.608 81.2634 70.7641 84.3588 65.6843 87.1194C60.6114 89.8736 55.3165 92.2868 49.8481 94.3335C44.3797 96.3803 38.7516 98.0606 33.0126 99.3493C30.084 100.019 27.0375 100.164 24.0535 99.7789C21.0625 99.3935 18.1826 98.4902 15.5733 97.1067C12.957 95.7296 10.667 93.9039 8.81408 91.7372C6.96814 89.5641 5.5941 87.0878 4.77522 84.4472C-2.19216 62.7795 -1.1651 38.2817 5.55246 16.5192C9.09167 5.09156 20.9099 -2.08469 33.082 0.555866C55.6219 5.44532 76.7738 18.0353 92.9432 33.9355ZM61.2083 56.4371C65.4553 53.3796 65.4553 47.4226 61.2083 44.2703C59.7 43.129 58.1548 42.032 56.5726 40.9791C54.9904 39.922 53.3734 38.9113 51.7218 37.9469C50.0748 36.9825 48.3954 36.0623 46.6836 35.1863C44.9718 34.3146 43.2323 33.4891 41.465 32.71C36.5865 30.5875 31.1389 33.5502 30.3547 38.6039C29.1541 46.3297 28.939 54.1187 29.7232 61.5224C30.2506 66.6456 35.6288 69.7031 40.5837 67.7384C42.4296 67.0141 44.2478 66.235 46.0382 65.4011C47.8287 64.5672 49.5867 63.6786 51.3124 62.7353C53.038 61.7919 54.7266 60.798 56.3783 59.7536C58.0299 58.7092 59.6399 57.6142 61.2083 56.4687V56.4371Z" fill="white"/>
</svg>
